<?xml version="1.0" encoding="UTF-8" standalone="no"?>
<!-- Created with Inkscape (http://www.inkscape.org/) -->

<svg
   width="300mm"
   height="300mm"
   viewBox="0 0 300 300"
   version="1.1"
   id="svg1"
   inkscape:version="1.4.1 (93de688d07, 2025-03-30)"
   sodipodi:docname="benrogo.svg"
   xmlns:inkscape="http://www.inkscape.org/namespaces/inkscape"
   xmlns:sodipodi="http://sodipodi.sourceforge.net/DTD/sodipodi-0.dtd"
   xmlns="http://www.w3.org/2000/svg"
   xmlns:svg="http://www.w3.org/2000/svg">
  <sodipodi:namedview
     id="namedview1"
     pagecolor="#000000"
     bordercolor="#000000"
     borderopacity="0.25"
     inkscape:showpageshadow="2"
     inkscape:pageopacity="0.0"
     inkscape:pagecheckerboard="0"
     inkscape:deskcolor="#d1d1d1"
     inkscape:document-units="mm"
     inkscape:zoom="0.4349884"
     inkscape:cx="489.66823"
     inkscape:cy="614.95893"
     inkscape:window-width="1920"
     inkscape:window-height="1008"
     inkscape:window-x="0"
     inkscape:window-y="0"
     inkscape:window-maximized="1"
     inkscape:current-layer="layer1" />
  <defs
     id="defs1" />
  <g
     inkscape:label="Layer 1"
     inkscape:groupmode="layer"
     id="layer1"
     transform="translate(-51.105294,-49.999936)">
    <path
       id="path2"
       style="fill:#ffffff;stroke-width:5.22868;stroke-linejoin:round"
       d="m 198.37478,49.999936 c -1.51893,1.636443 -3.0349,3.239899 -4.54879,4.810679 h 8.85905 c -1.47363,-1.595959 -2.90942,-3.200974 -4.31026,-4.810679 z M 185.07191,63.557259 C 167.36669,80.568736 149.9429,93.183746 132.47225,102.10628 h 31.43277 c 11.27355,-7.62213 22.60515,-16.750519 34.27613,-27.626357 8.98331,6.063916 13.30194,11.76382 19.70117,17.260463 h 33.82703 C 235.62897,84.064972 222.44214,74.209969 211.27697,63.557259 Z m 46.70063,37.253221 c 11.79853,5.78779 30.53088,11.44167 64.88592,17.16883 h 23.02282 c 1.02808,-3.34991 2.12412,-6.82029 3.29073,-10.42397 -17.71179,-0.38131 -33.31927,-2.80988 -47.16374,-6.74486 z M 112.1324,110.85292 c -10.13515,3.56072 -20.328394,5.98162 -30.642448,7.39827 0.293563,0.66603 0.581259,1.33131 0.863217,1.99577 h 48.672611 c 6.32361,-2.72794 12.58166,-5.84565 18.82163,-9.39404 z m 189.65229,12.95749 c -1.26714,4.15919 -2.45088,8.37248 -3.54444,12.63404 h 16.13983 c 1.06193,-4.02093 2.24081,-8.22107 3.54444,-12.63404 z m -215.039613,8.09874 c 1.927455,5.85589 3.427825,11.67508 4.548219,17.49279 h 17.473724 c -0.85811,-6.26611 -1.91969,-12.13086 -3.1589,-17.49279 z m 209.540103,12.63354 c -3.11237,13.75635 -5.26638,27.96484 -6.24315,42.43692 h 16.24422 c 0.39229,-13.0479 2.21474,-26.33383 6.05535,-42.43692 z M 92.738599,158.47253 c 2.32651,18.36204 1.118802,36.89109 -2.155122,56.6897 h 19.597363 c 1.63187,-20.09236 1.36618,-39.57343 -0.34354,-56.6897 z m 196.858981,37.25322 c -0.50431,14.84158 0.25886,29.91736 2.52199,45.02802 h 18.38012 c -2.39446,-17.34129 -4.04099,-31.36959 -4.26885,-45.02802 z M 89.023852,223.90888 c -2.57163,13.50381 -5.971999,27.64734 -9.76135,42.76037 h 22.359068 c 3.66173,-14.02064 6.18584,-28.47964 7.73163,-42.76037 z m 204.333968,24.29573 c 1.27969,7.00303 2.8898,14.00652 4.85268,20.99064 h 16.29906 c -1.0513,-7.55062 -2.05008,-14.50397 -2.96702,-20.99064 z M 76.974976,275.73984 c -0.07713,0.3047 -0.154186,0.60976 -0.231551,0.91527 32.491405,7.82589 48.406815,14.40679 65.378185,28.88761 h 22.1631 c -16.55939,-14.99491 -33.95365,-22.98248 -50.67083,-29.80288 z m 189.855264,0.54726 c -16.00283,4.92586 -29.82129,11.5427 -41.58024,18.88922 h 32.13967 c 12.58231,-5.76435 29.19524,-11.91668 52.27363,-18.88922 z m -51.63788,25.69217 c -12.13742,8.87312 -21.58843,18.33135 -28.54333,26.90285 h 23.80205 c 10.06313,-9.62358 17.82365,-17.98417 33.54065,-26.90285 z m -65.25513,10.68984 c 4.82183,4.65328 9.91946,9.99591 15.65047,16.21301 h 19.22409 c -4.31253,-6.09012 -8.73776,-11.45316 -13.24456,-16.21301 z m 23.20012,24.4865 c 3.58981,3.96334 7.43154,8.23346 11.59103,12.84433 6.68473,-4.60591 12.05246,-8.85358 16.6735,-12.84433 z" />
    <path
       style="fill:#ffffff;stroke-width:5.22868;stroke-linejoin:round"
       d="m 279.97282,133.41815 -42.99677,15.5987 -25.89441,31.26392 69.50476,-4.26686 z"
       id="path3"
       sodipodi:nodetypes="ccccc" />
    <path
       style="fill:#ffffff;stroke-width:5.22868;stroke-linejoin:round"
       d="m 182.34055,184.37802 -10.35591,-31.40875 -46.76845,-10.36614 -5.45147,34.19335 z"
       id="path4"
       sodipodi:nodetypes="ccccc" />
    <path
       style="fill:#ffffff;stroke-width:5.22868;stroke-linejoin:round"
       d="m 270.00525,222.10165 -25.31935,-10.28694 -11.26762,24.58133 -100.05062,-10.25984 -7.79342,19.13843 124.34292,14.08575 z"
       id="path5"
       sodipodi:nodetypes="ccccccc" />
    <path
       id="path179"
       style="fill:#00ffff;stroke-width:7.7486;stroke-linejoin:round"
       d="m 153.74705,63.086606 v 3.783752 h 28.32577 c 0.99896,-1.242519 1.9984,-2.504016 2.99909,-3.783752 z m 47.9243,37.236194 v 3.92345 h 36.77946 c -2.45617,-1.3037 -4.66778,-2.61076 -6.67827,-3.92345 z M 85.445001,110.38227 v 3.78375 h 17.751939 c 2.98433,-1.13361 5.96211,-2.39367 8.93489,-3.78375 z M 252.2372,123.49698 v 2.522 h 48.97707 c 0.18823,-0.84246 0.37834,-1.68283 0.57042,-2.522 z m -196.226149,7.7848 v 5.04501 h 31.923863 c -0.376997,-1.67966 -0.773464,-3.36125 -1.189837,-5.04501 z m 227.266959,12.82531 v 3.50337 h 12.42451 c 0.19027,-1.1702 0.38457,-2.33798 0.58266,-3.50337 z M 51.105294,157.98485 v 3.92295 h 41.976262 c -0.104402,-1.30852 -0.218533,-2.61592 -0.342957,-3.92295 z M 262.04871,195.2551 v 3.78425 h 27.4678 c 0.0218,-1.26255 0.0489,-2.52417 0.081,-3.78425 z M 51.862359,223.43823 v 3.78375 h 36.609733 c 0.187787,-1.26537 0.371342,-2.52687 0.551173,-3.78375 z m 219.997861,24.36583 v 3.22246 h 21.95313 c -0.1563,-1.07425 -0.30803,-2.14819 -0.45553,-3.22246 z m -212.075511,27.4481 v 3.92345 h 25.122532 c -2.602167,-0.89465 -5.319403,-1.79337 -8.163816,-2.70525 0.07736,-0.4066 0.154421,-0.81266 0.231551,-1.2182 z m 183.504201,0.65341 v 3.06776 h 16.5516 c 2.28186,-1.06942 4.61182,-2.09353 6.98973,-3.06776 z m -57.08898,25.70769 v 2.94308 h 26.03766 c 0.96649,-0.98555 1.95169,-1.96707 2.95477,-2.94308 z m -71.13084,10.67232 v 3.08328 h 37.23441 c -0.79704,-1.05242 -1.58525,-2.08008 -2.36627,-3.08328 z m 17.05379,24.4249 v 3.57897 h 43.44606 c -0.82356,-1.21341 -1.63365,-2.40641 -2.43159,-3.57897 z" />
    <path
       id="path165"
       style="fill:#ff00ff;stroke-width:7.7486;stroke-linejoin:round"
       d="m 200.10764,51.497515 c 0.84633,1.264512 1.70518,2.526457 2.5774,3.783753 h 29.17499 v -3.783753 z m 45.76101,36.807101 c 1.90362,1.350102 3.85005,2.658773 5.8407,3.923448 h 39.77332 v -3.923448 z m -77.85577,10.488561 c -1.37056,1.291013 -2.73951,2.552383 -4.10786,3.783753 h 21.69473 v -3.783753 z m 152.25341,16.978073 c -0.19729,0.84627 -0.39249,1.68659 -0.58501,2.5215 h 19.34831 v -2.5215 z m -181.01078,0.0586 c -2.73336,1.78282 -5.47541,3.46302 -8.22973,5.04451 h 38.78177 v -5.04451 z m 175.82973,17.54686 c -0.24049,1.17923 -0.47568,2.34685 -0.70516,3.50336 h 20.87585 v -3.50336 z M 108.34358,145.9667 c 0.14607,1.29398 0.28749,2.60161 0.42344,3.92295 h 14.20459 v -3.92295 z m 198.05057,37.69934 c -0.0437,1.26384 -0.0795,2.52504 -0.1079,3.78426 h 36.517 v -3.78426 z m -195.99459,28.18312 c -0.0686,1.25912 -0.14166,2.52076 -0.21872,3.78376 h 42.32912 v -3.78376 z m 199.76767,26.08272 c 0.10903,1.06483 0.22001,2.13862 0.33246,3.22247 h 40.6056 v -3.22247 z m -207.79442,25.3021 c -0.245,1.31042 -0.49517,2.61795 -0.75124,3.92294 h 50.99338 v -3.92294 z m 211.81537,3.27504 c 0.10666,1.01428 0.21355,2.03695 0.32138,3.06777 h 18.95986 v -3.06777 z m -51.81692,26.09072 c -1.72852,0.98983 -3.38744,1.97053 -4.98159,2.9426 h 43.90451 v -2.9426 z m -100.71527,10.24323 c 0.87828,1.00241 1.75486,2.03006 2.62872,3.08328 h 19.65103 v -3.08328 z m 51.58713,22.90529 c -0.91606,1.17933 -1.84367,2.37182 -2.79204,3.57898 h 37.65667 v -3.57898 z" />
  </g>
</svg>
